<?xml version="1.0" encoding="utf-8"?>
<!-- Generator: Adobe Illustrator 25.2.1, SVG Export Plug-In . SVG Version: 6.00 Build 0)  -->
<svg version="1.1" id="Layer_1" xmlns="http://www.w3.org/2000/svg" xmlns:xlink="http://www.w3.org/1999/xlink" x="0px" y="0px"
	 viewBox="0 0 432 432" style="enable-background:new 0 0 432 432;" xml:space="preserve">
<style type="text/css">
	.st0{fill:none;stroke:#231F20;stroke-width:2.5634;stroke-miterlimit:10;}
	.st1{fill:#231F20;}
</style>
<g id="Layer_1_1_">
	<path class="st0" d="M149.1,114l155,157.8c9.7,9.8,26.4,3,26.4-10.8v-34.5c0-10.5-7.2-14.1-15-21.2l-30-27
		c-10.8-9.7-3.9-27.6,10.6-27.6h25.1c5.4,0,9.7-4.3,9.7-9.7c0,0,0-0.1,0-0.1l-0.3-29.5c-0.1-9.2-7.5-16.5-16.7-16.5l-156.9,0.1
		c-6.1,0-11.1,5-11.1,11.2C146,109.2,147.1,112,149.1,114z"/>
	<path class="st1" d="M106.4,308.9l2-181.9c0-6.5,5.4-11.8,11.9-11.7c3.1,0,6.1,1.3,8.3,3.5l181.6,180c7.5,7.4,2.2,20.2-8.3,20.2
		h-95.9c-2.9,0-5.6-1-7.8-2.9l-18-15.9c-4.9-4.3-12.3-3.8-16.7,1.1c-1.9,2.1-2.9,4.9-2.9,7.8l0,0c0,6.5-5.2,11.7-11.7,11.8
		c-9.1,0.1-21.5,0.1-30.7,0.1c-6.5,0-11.8-5.2-11.8-11.8C106.4,309,106.4,309,106.4,308.9z"/>
	<path class="st0" d="M156.5,107.8l159.7,162.7c9.7,9.8,26.4,3,26.4-10.8l0-34.5c0-10.5-6.9-14.1-14.7-21.1l-30-27
		c-10.8-9.7-3.9-27.7,10.6-27.7h24.8c5.4,0,9.7-4.3,9.7-9.7c0,0,0-0.1,0-0.1l-0.3-29.5c-0.1-9.1-7.5-16.5-16.7-16.5l-163.6,0.1
		c-4.6,0-8.3,3.7-8.3,8.3C154.1,104.1,154.9,106.2,156.5,107.8z"/>
	<path class="st0" d="M97.4,307.2l2-177.6c0.1-10.2,12.7-15.2,20.1-8.1l181.6,175.7c7.5,7.3,2.2,19.7-8.3,19.7H197
		c-2.9,0-5.6-1-7.8-2.9l-18-15.4c-7.6-6.5-19.6-1.3-19.6,8.6l0,0c-0.1,6.4-5.3,11.5-11.7,11.5c-9.1,0.1-21.5,0.1-30.7,0.1
		c-6.4,0.1-11.7-5.1-11.8-11.5C97.4,307.3,97.4,307.2,97.4,307.2z"/>
</g>
</svg>
